<svg id="ic_linkedIn_official" xmlns="http://www.w3.org/2000/svg" width="24" height="24" viewBox="0 0 24 24">
  <path id="Path_2433" data-name="Path 2433" d="M1.6,0H22.4A1.6,1.6,0,0,1,24,1.6V22.4A1.6,1.6,0,0,1,22.4,24H1.6A1.6,1.6,0,0,1,0,22.4V1.6A1.6,1.6,0,0,1,1.6,0Z" fill="#2867b2"/>
  <path id="Icon_awesome-linkedin-in" data-name="Icon awesome-linkedin-in" d="M3.825,17.089H.282V5.68H3.825ZM2.052,4.124A2.062,2.062,0,1,1,4.1,2.053,2.069,2.069,0,0,1,2.052,4.124ZM17.085,17.089H13.55V11.536c0-1.324-.027-3.021-1.842-3.021-1.842,0-2.124,1.438-2.124,2.926v5.649H6.045V5.68h3.4V7.237h.05a3.723,3.723,0,0,1,3.352-1.842c3.586,0,4.245,2.361,4.245,5.428v6.267Z" transform="translate(3.462 3.461)" fill="#fff"/>
</svg>
